HIERARCHY
ROOT Hips
{
	OFFSET 0.00000 0.00000 0.00000
	CHANNELS 6 Xposition Yposition Zposition Zrotation Yrotation Xrotation 
	JOINT LHipJoint
	{
		OFFSET 0 0 0
		CHANNELS 3 Zrotation Yrotation Xrotation
		JOINT LeftUpLeg
		{
			OFFSET 1.56857 -1.73443 1.15205
			CHANNELS 3 Zrotation Yrotation Xrotation
			JOINT LeftLeg
			{
				OFFSET 2.39362 -6.57643 0.00000
				CHANNELS 3 Zrotation Yrotation Xrotation
				JOINT LeftFoot
				{
					OFFSET 2.50952 -6.89485 0.00000
					CHANNELS 3 Zrotation Yrotation Xrotation
					JOINT LeftToeBase
					{
						OFFSET 0.17171 -0.47178 1.88682
						CHANNELS 3 Zrotation Yrotation Xrotation
						End Site
						{
							OFFSET 0.00000 -0.00000 0.98146
						}
					}
				}
			}
		}
	}
	JOINT RHipJoint
	{
		OFFSET 0 0 0
		CHANNELS 3 Zrotation Yrotation Xrotation
		JOINT RightUpLeg
		{
			OFFSET -1.28153 -1.73443 1.15205
			CHANNELS 3 Zrotation Yrotation Xrotation
			JOINT RightLeg
			{
				OFFSET -2.26861 -6.23296 0.00000
				CHANNELS 3 Zrotation Yrotation Xrotation
				JOINT RightFoot
				{
					OFFSET -2.54143 -6.98254 0.00000
					CHANNELS 3 Zrotation Yrotation Xrotation
					JOINT RightToeBase
					{
						OFFSET -0.23309 -0.64041 1.93119
						CHANNELS 3 Zrotation Yrotation Xrotation
						End Site
						{
							OFFSET -0.00000 -0.00000 1.02013
						}
					}
				}
			}
		}
	}
	JOINT LowerBack
	{
		OFFSET 0 0 0
		CHANNELS 3 Zrotation Yrotation Xrotation
		JOINT Spine
		{
			OFFSET -0.07096 2.10460 -0.27878
			CHANNELS 3 Zrotation Yrotation Xrotation
			JOINT Spine1
			{
				OFFSET -0.00826 2.13662 -0.08279
				CHANNELS 3 Zrotation Yrotation Xrotation
				JOINT Neck
				{
					OFFSET 0 0 0
					CHANNELS 3 Zrotation Yrotation Xrotation
					JOINT Neck1
					{
						OFFSET 0.03239 1.77799 0.24435
						CHANNELS 3 Zrotation Yrotation Xrotation
						JOINT Head
						{
							OFFSET 0.01026 1.74194 -0.49664
							CHANNELS 3 Zrotation Yrotation Xrotation
							End Site
							{
								OFFSET 0.00170 1.83057 -0.19653
							}
						}
					}
				}
				JOINT LeftShoulder
				{
					OFFSET 0 0 0
					CHANNELS 3 Zrotation Yrotation Xrotation
					JOINT LeftArm
					{
						OFFSET 3.19178 1.35907 -0.31412
						CHANNELS 3 Zrotation Yrotation Xrotation
						JOINT LeftForeArm
						{
							OFFSET 4.85247 -0.00000 -0.00000
							CHANNELS 3 Zrotation Yrotation Xrotation
							JOINT LeftHand
							{
								OFFSET 3.55584 -0.00000 0.00000
								CHANNELS 3 Zrotation Yrotation Xrotation
								JOINT LeftFingerBase
								{
									OFFSET 0 0 0
									CHANNELS 3 Zrotation Yrotation Xrotation
									JOINT LeftHandIndex1
									{
										OFFSET 0.69320 -0.00000 0.00000
										CHANNELS 3 Zrotation Yrotation Xrotation
										End Site
										{
											OFFSET 0.55888 -0.00000 0.00000
										}
									}
								}
								JOINT LThumb
								{
									OFFSET 0 0 0
									CHANNELS 3 Zrotation Yrotation Xrotation
									End Site
									{
										OFFSET 0.56741 -0.00000 0.56741
									}
								}
							}
						}
					}
				}
				JOINT RightShoulder
				{
					OFFSET 0 0 0
					CHANNELS 3 Zrotation Yrotation Xrotation
					JOINT RightArm
					{
						OFFSET -3.28999 1.24191 -0.26899
						CHANNELS 3 Zrotation Yrotation Xrotation
						JOINT RightForeArm
						{
							OFFSET -4.64462 -0.00000 0.00000
							CHANNELS 3 Zrotation Yrotation Xrotation
							JOINT RightHand
							{
								OFFSET -3.40703 -0.00000 0.00000
								CHANNELS 3 Zrotation Yrotation Xrotation
								JOINT RightFingerBase
								{
									OFFSET 0 0 0
									CHANNELS 3 Zrotation Yrotation Xrotation
									JOINT RightHandIndex1
									{
										OFFSET -0.61958 -0.00000 0.00000
										CHANNELS 3 Zrotation Yrotation Xrotation
										End Site
										{
											OFFSET -0.49952 -0.00000 0.00000
										}
									}
								}
								JOINT RThumb
								{
									OFFSET 0 0 0
									CHANNELS 3 Zrotation Yrotation Xrotation
									End Site
									{
										OFFSET -0.50715 -0.00000 0.50715
									}
								}
							}
						}
					}
				}
			}
		}
	}
}
MOTION
Frames: 14
Frame Time: 0.0512821
0.00 0.00 0.00 500.0820 84.4104 502.7460 0.0000 0.0000 0.0000 -24.1118 2.3151 16.8704 3.3936 11.3066 33.3209 -0.4734 -13.4957 11.4154 1.4115 7.5142 21.2480 0.0000 0.0000 0.0000 13.7015 13.6164 -27.0039 -4.6313 -12.9562 39.2047 -0.9319 2.7183 -17.5310 -0.2691 -3.3372 9.2191 -7.5658 0.1995 7.8844 0.6031 0.1747 7.1458 4.8747 -0.1155 3.0560 5.7965 2.9992 -23.1337 0.2071 2.1472 18.3642 -0.5465 1.4549 9.6967 0.0000 0.0000 0.0000 -86.7442 -2.4538 -3.1622 4.4423 -7.6409 -0.2968 -0.0000 -0.0000 45.5615 11.8710 -7.5798 -1.5883 -7.1250 0.0000 -0.0000 -10.8664 22.2787 6.0422 0.0000 0.0000 0.0000 81.3226 8.4256 26.1158 -13.0273 21.3272 -2.4632 0.0000 0.0000 13.4311 -11.4338 -34.5329 6.5405 7.1250 -0.0000 -0.0000 26.4787 -63.1227 -12.0802
0.00 0.00 0.00 894.9200 67.1148 891.7020 0.0000 0.0000 0.0000 -18.1529 -1.6832 20.8322 4.0023 12.1635 36.3128 0.0262 -6.2600 -5.0518 0.1240 2.2698 6.2520 0.0000 0.0000 0.0000 -10.4316 13.5821 -27.1067 -1.5866 -7.9459 22.5499 -0.5582 1.7179 -13.6267 -0.3774 -3.9457 10.9239 -6.4667 0.4609 7.0956 0.8507 0.8041 8.1446 4.5040 0.2269 4.4674 8.7958 3.8855 -18.9691 0.7014 3.2474 30.0986 -0.5990 2.8001 13.5176 0.0000 0.0000 0.0000 -85.9791 -3.8356 43.6209 13.9397 -22.6485 -2.8049 -0.0000 -0.0000 0.5973 21.8516 -23.1556 -8.9612 -7.1250 0.0000 -0.0000 -4.4894 5.3045 4.0679 0.0000 0.0000 0.0000 82.9590 5.3525 30.7354 -13.7157 22.3268 -2.7192 0.0000 0.0000 11.2805 -11.6602 -31.9287 6.2285 7.1250 -0.0000 -0.0000 23.7501 -60.8595 -9.4856
0.00 0.00 0.00 905.3170 57.6279 902.6770 0.0000 0.0000 0.0000 -10.4070 -4.1720 7.1811 8.3235 16.3521 53.7198 0.1610 2.9869 -9.2904 0.1865 2.7816 7.6714 0.0000 0.0000 0.0000 -10.4316 13.5821 -27.1067 -1.5866 -7.9459 22.5499 -0.5582 1.7179 -13.6267 -0.3774 -3.9457 10.9239 -0.9539 -0.3636 7.6059 2.4617 -0.0366 8.4230 3.1155 0.0864 4.5062 9.8388 4.7707 -19.0450 0.2079 4.3501 29.3395 -0.7792 3.3008 13.3165 -0.0000 -0.0000 0.0000 -84.0429 -2.3182 44.5666 14.0762 -22.8436 -2.8576 -0.0000 -0.0000 5.3395 17.3544 -22.6104 -6.8511 -7.1250 0.0000 -0.0000 -7.2526 6.5639 6.4290 -0.0000 -0.0000 0.0000 79.8826 13.8964 29.5577 -16.0514 25.5903 -3.6681 0.0000 0.0000 2.9265 -16.5189 -35.8564 9.8550 7.1250 -0.0000 -0.0000 22.3292 -65.6853 -11.4073
0.00 0.00 0.00 911.4000 18.8982 907.9300 0.0000 0.0000 0.0000 -6.3367 -1.4561 -30.3840 3.2195 11.0421 32.4220 0.3398 1.2649 -11.5452 0.1780 -2.7178 -7.4940 0.0000 0.0000 0.0000 24.6323 -15.2393 3.6554 -0.5831 -4.8896 13.5939 -1.3108 -8.1248 -25.9544 -1.0112 6.3983 -17.9446 9.4748 4.4036 6.4228 0.7315 6.8153 6.1785 -4.6244 4.0156 3.8879 8.1095 3.1465 -19.3718 -8.2232 5.2564 25.7972 -3.5617 2.4262 12.1472 -0.0000 0.0000 0.0000 -85.0345 0.9448 32.6795 14.1638 -22.9684 -2.8917 -0.0000 -0.0000 2.2307 22.3761 -25.5058 -10.0525 -7.1250 0.0000 -0.0000 -4.4185 2.7589 4.2134 -0.0000 0.0000 0.0000 71.4950 20.0227 27.5417 -23.8207 34.9741 -7.6035 0.0000 -0.0000 -9.2907 -20.0160 -35.0950 11.8291 7.1250 -0.0000 -0.0000 17.4604 -65.9809 -8.9612
0.00 0.00 0.00 893.3930 9.3614 898.0210 0.0000 0.0000 0.0000 -6.3367 -1.4561 -30.3840 3.2195 11.0421 32.4220 0.3398 1.2649 -11.5452 0.1780 -2.7178 -7.4940 0.0000 0.0000 0.0000 6.0527 0.5332 -15.7486 -10.7943 -17.8329 62.1117 -0.2582 -1.9019 -10.4887 -0.8787 -5.9760 16.7149 -8.8387 2.0587 5.9256 -5.5363 3.7667 6.7184 -0.9139 2.1274 3.6168 7.5328 2.9228 -18.9516 -5.4330 4.9993 28.9619 -2.4502 2.8014 13.2064 -0.0000 0.0000 0.0000 -82.4564 -15.1816 33.8649 12.9572 -21.2244 -2.4378 -0.0000 -0.0000 6.1289 26.9897 -26.0978 -12.6282 -7.1250 0.0000 -0.0000 -1.7166 1.1927 1.6813 -0.0000 0.0000 0.0000 88.1286 -6.6881 31.9968 -13.6961 22.2985 -2.7117 0.0000 0.0000 10.3840 -5.9242 -31.9731 3.1451 7.1250 -0.0000 -0.0000 29.6610 -59.5533 -11.1356
0.00 0.00 0.00 897.8420 -57.2323 902.2220 0.0000 0.0000 0.0000 -34.5069 -9.7358 10.1562 0.5059 4.5596 12.6566 0.4555 -8.4394 -12.5521 1.4114 7.5140 21.2473 0.0000 0.0000 0.0000 6.5189 6.8952 -17.9262 -4.1133 -12.3097 36.8364 -0.6525 -1.2740 -15.7719 -0.0029 -0.3499 0.9614 -8.4285 0.8642 5.6625 -2.2716 0.5480 6.9366 2.3196 -0.2340 3.9999 8.7716 7.6862 -16.5477 -10.2927 10.7035 24.9268 -3.6731 4.1955 12.0039 0.0000 -0.0000 0.0000 -92.8958 -28.1395 79.9734 28.4739 -39.5489 -10.4241 -0.0000 0.0000 -4.2883 16.4282 -26.8623 -7.5887 -7.1250 0.0000 -0.0000 -8.1376 2.3863 7.8725 0.0000 -0.0000 0.0000 87.4806 -16.3538 44.2822 -15.3286 24.6019 -3.3616 0.0000 0.0000 3.5742 -0.5713 -30.5809 0.2906 7.1250 -0.0000 -0.0000 33.6528 -57.2029 -10.8901
0.00 0.00 0.00 881.9930 -79.8106 919.0220 0.0000 0.0000 0.0000 -28.5681 -11.9858 13.2296 3.4937 11.4543 33.8277 -1.3602 -20.8948 1.7859 2.3142 9.4919 27.3466 0.0000 0.0000 0.0000 9.4138 12.1597 -17.2553 -3.2521 -11.0924 32.5921 -1.1319 6.7007 -18.9977 -0.0694 1.6994 -4.6756 -4.0572 2.3394 7.0834 -0.7955 2.5978 8.3571 1.3456 0.9390 4.5810 8.0162 5.4588 -21.4686 -6.9296 6.5750 19.3901 -2.7830 2.7903 10.2423 -0.0000 0.0000 0.0000 -86.0337 -12.6845 -15.8476 7.0512 -12.0035 -0.7423 -0.0000 -0.0000 23.4831 35.4855 -20.6050 -14.0842 -7.1250 0.0000 -0.0000 4.3488 5.2560 -3.9437 -0.0000 0.0000 0.0000 74.8057 19.8526 21.0086 -13.4279 21.9109 -2.6108 0.0000 0.0000 10.9102 -15.6429 -31.0661 8.2220 7.1250 -0.0000 -0.0000 18.7957 -61.0252 -7.4888
0.00 0.00 0.00 914.0220 -83.8973 886.3160 0.0000 0.0000 0.0000 -18.7367 -12.4782 2.9051 7.5345 15.7659 50.8680 0.0012 -12.9727 18.4604 1.4369 7.5787 21.4415 0.0000 0.0000 0.0000 17.5943 8.6825 -10.7952 -2.7278 -10.2408 29.7601 -1.5368 6.1301 -22.2436 -0.0705 1.7131 -4.7133 0.0387 1.0704 7.4008 1.1592 0.9836 8.6224 1.1373 0.2844 4.7959 7.9407 5.1512 -21.5310 -4.9540 5.7106 21.1546 -2.2102 2.6162 10.7546 -0.0000 -0.0000 0.0000 -81.5320 -5.4400 -23.6116 6.8566 -11.6830 -0.7023 -0.0000 -0.0000 8.4667 31.3886 -10.2037 -6.1687 -7.1250 0.0000 -0.0000 3.0679 18.0834 -1.9669 -0.0000 -0.0000 0.0000 75.4441 26.7804 20.5019 -19.0754 29.5123 -5.0680 0.0000 -0.0000 -3.7242 -15.1088 -36.9507 9.2184 7.1250 -0.0000 -0.0000 25.2070 -66.2561 -13.2856
0.00 0.00 0.00 693.3770 -78.6715 1104.1000 0.0000 0.0000 0.0000 -11.0562 -4.9874 -17.3442 6.1426 14.5651 45.5515 0.6763 1.2301 -16.0276 0.0149 -0.7878 -2.1652 0.0000 0.0000 0.0000 26.4507 -6.3397 -3.0729 -0.5568 -4.7796 13.2811 -0.6481 5.2965 -14.3370 -0.0713 -1.7221 4.7382 0.7213 3.1853 8.1728 2.7831 3.6567 10.6746 2.4029 1.5523 6.4857 7.6235 3.9530 -21.8607 4.1239 0.8419 30.3350 0.4904 1.6916 14.1568 0.0000 0.0000 0.0000 -79.3316 2.3596 48.2029 11.9668 -19.7548 -2.0911 -0.0000 -0.0000 11.1940 13.2953 -25.9715 -5.9081 -7.1250 0.0000 -0.0000 -9.9566 3.7328 9.4333 0.0000 0.0000 0.0000 74.4274 27.5993 26.0060 -20.2934 30.9942 -5.6817 0.0000 -0.0000 -3.9882 -18.8998 -36.9322 11.6248 7.1250 -0.0000 -0.0000 20.8209 -67.3561 -11.3987
0.00 0.00 0.00 685.6780 -72.3609 1112.5000 0.0000 0.0000 0.0000 -19.1041 15.2329 -29.6217 1.4797 7.6858 21.7639 0.2265 18.6043 -28.1069 2.7200 10.2273 29.7160 0.0000 0.0000 0.0000 31.7438 -13.0582 5.3742 -0.2457 -3.1896 8.8069 -1.2097 8.0096 -19.6713 -0.0002 0.0926 -0.2544 4.0044 4.4522 4.8780 0.6218 5.7429 7.6946 -1.5622 2.9699 5.6242 10.3332 7.9664 -17.9469 -0.5252 7.9430 27.6886 -0.6412 4.4287 12.6918 -0.0000 0.0000 0.0000 -84.0016 0.7350 31.4037 11.8880 -19.6365 -2.0645 -0.0000 -0.0000 0.2382 19.7023 -22.9296 -7.9423 -7.1250 0.0000 -0.0000 -5.8081 5.8888 5.2091 -0.0000 0.0000 0.0000 81.0647 22.4751 37.5935 -23.2638 34.3760 -7.2867 0.0000 -0.0000 -4.2894 -14.6879 -31.8437 7.8738 7.1250 -0.0000 -0.0000 20.4590 -61.5189 -8.4227
0.00 0.00 0.00 721.0520 -3.0729 1079.7300 0.0000 0.0000 0.0000 -22.6783 0.3660 18.8583 3.4478 11.3869 33.5960 0.0388 -10.9780 -8.2752 0.0002 -0.0863 -0.2372 0.0000 0.0000 0.0000 13.5638 14.5495 -22.4127 -4.0259 -12.1948 36.4245 -0.7978 4.0774 -15.9939 -0.0121 0.7091 -1.9487 -5.1646 0.2641 8.4186 1.9366 0.0440 9.1619 4.9276 -0.3543 4.8877 6.9356 7.3044 -19.5873 -12.9585 11.1855 19.1257 -4.0422 4.2124 10.5628 0.0000 0.0000 0.0000 -86.4925 -1.6786 -6.8363 4.6749 -8.0351 -0.3285 -0.0000 -0.0000 42.4957 19.1560 -11.0016 -3.7927 -7.1250 0.0000 -0.0000 -5.5867 18.3821 3.5568 0.0000 0.0000 0.0000 79.3665 17.2930 34.4849 -14.9103 24.0210 -3.1893 0.0000 0.0000 7.3434 -15.4926 -33.8158 8.7694 7.1250 -0.0000 -0.0000 21.3575 -63.5450 -9.8311
0.00 0.00 0.00 716.3450 -3.4901 1082.3000 0.0000 0.0000 0.0000 -9.3551 -10.2741 -28.4401 3.6348 11.6579 34.5323 0.2555 1.5911 -10.2660 0.0384 1.2647 3.4774 0.0000 0.0000 0.0000 19.8047 0.1129 15.9470 -3.8805 -11.9996 35.7306 -0.0525 3.6174 -4.4745 -0.0916 -1.9515 5.3715 -1.2130 5.2872 6.6565 -4.7162 7.1371 7.7273 -4.3930 3.6626 4.8247 1.6010 0.9448 -22.6199 -2.9814 1.8569 29.9797 -1.1293 0.5664 14.0774 0.0000 -0.0000 0.0000 -79.2372 -19.9958 -7.7435 3.7345 -6.4366 -0.2101 -0.0000 -0.0000 61.9950 10.3045 -16.8332 -3.0138 -7.1250 0.0000 -0.0000 -11.6309 13.1396 8.8712 0.0000 -0.0000 0.0000 91.3977 4.7659 46.9192 -12.5487 20.6224 -2.2919 0.0000 -0.0000 -3.0717 -6.0871 -41.0788 4.0084 7.1250 -0.0000 -0.0000 40.7117 -66.9272 -23.0358
0.00 0.00 0.00 720.5750 -4.5369 1080.3900 0.0000 0.0000 0.0000 -17.4329 -7.0714 -21.7885 3.5068 11.4735 33.8939 0.4947 0.4027 -13.4390 0.1422 -2.4304 -6.6968 0.0000 0.0000 0.0000 13.7165 2.0916 6.2357 -8.3828 -16.3937 53.9302 -0.0005 -1.8168 1.3140 -0.1366 -2.3821 6.5628 -4.8975 4.5992 8.1451 -6.3451 6.0788 8.8610 -4.1566 2.9913 4.9784 2.1616 2.1772 -22.9709 -3.6263 3.6663 30.5387 -1.1557 1.2961 14.4871 -0.0000 0.0000 0.0000 -77.7857 -19.7224 -6.8868 6.5235 -11.1324 -0.6364 -0.0000 -0.0000 76.2251 -1.7293 -18.5277 0.5496 -7.1250 0.0000 -0.0000 -19.2807 12.1696 15.7221 -0.0000 0.0000 0.0000 86.2739 4.6955 56.8055 -13.9018 22.5942 -2.7903 0.0000 0.0000 2.8933 3.5585 -37.1862 -2.1525 7.1250 -0.0000 -0.0000 44.4853 -61.4165 -19.9318
0.00 0.00 0.00 729.8370 -5.0233 1078.6200 0.0000 0.0000 0.0000 -28.4607 9.7557 1.4500 5.6164 14.0461 43.4222 -0.4717 -13.4224 -1.3530 0.0252 -1.0258 -2.8197 0.0000 0.0000 0.0000 19.7723 -11.0210 -29.7682 -2.4269 -9.7038 28.0228 -0.8574 -12.9443 -26.5269 -4.4788 -12.7716 38.5195 -3.5822 1.4682 5.9928 1.5732 1.8088 8.7454 3.6266 0.6291 5.6025 -5.4460 -8.5865 -15.3396 15.3760 -15.2765 25.3604 4.2630 -5.5471 12.7395 -0.0000 -0.0000 0.0000 -90.5289 -10.9246 51.6639 20.9164 -31.7306 -6.0059 -0.0000 0.0000 -0.7021 18.7825 -25.4080 -8.3019 -7.1250 0.0000 -0.0000 -6.5909 3.4877 6.2197 -0.0000 -0.0000 0.0000 81.6373 6.8450 41.3881 -24.7719 35.9700 -8.1556 0.0000 -0.0000 -31.8116 -20.8069 -40.0426 13.7381 7.1250 -0.0000 -0.0000 22.8040 -70.7476 -14.2463
